HIERARCHY
ROOT ui
{
	 OFFSET 0 0 0
	 CHANNELS 3 XPosition YPosition Z Position
	 EndSite
	 {
	 OFFSET 0 -1 0
	 }
}
ROOT li
{
	 OFFSET 0 0 0
	 CHANNELS 3 XPosition YPosition Z Position
	 EndSite
	 {
	 OFFSET 0 -1 0
	 }
}
ROOT ul
{
	 OFFSET 0 0 0
	 CHANNELS 3 XPosition YPosition Z Position
	 EndSite
	 {
	 OFFSET 0 -1 0
	 }
}
ROOT ll
{
	 OFFSET 0 0 0
	 CHANNELS 3 XPosition YPosition Z Position
	 EndSite
	 {
	 OFFSET 0 -1 0
	 }
}
ROOT tt
{
	 OFFSET 0 0 0
	 CHANNELS 3 XPosition YPosition Z Position
	 EndSite
	 {
	 OFFSET 0 -1 0
	 }
}
ROOT tb
{
	 OFFSET 0 0 0
	 CHANNELS 3 XPosition YPosition Z Position
	 EndSite
	 {
	 OFFSET 0 -1 0
	 }
}
ROOT td
{
	 OFFSET 0 0 0
	 CHANNELS 3 XPosition YPosition Z Position
	 EndSite
	 {
	 OFFSET 0 -1 0
	 }
}
ROOT v
{
	 OFFSET 0 0 0
	 CHANNELS 3 XPosition YPosition Z Position
	 EndSite
	 {
	 OFFSET 0 -1 0
	 }
}
ROOT bn
{
	 OFFSET 0 0 0
	 CHANNELS 3 XPosition YPosition Z Position
	 EndSite
	 {
	 OFFSET 0 -1 0
	 }
}
MOTION
Frames: 29
Frame Time: 0.002
0.006867827892303467	3.5468798875808714E-4	0		0.4230471496582031	-2.4715361328125	0		-1.10867138671875	-0.07505170440673828	0		-0.89766943359375	-2.278539306640625	0		1.3405941162109376	-0.7787442626953125	0		3.069624755859375	-0.33950653076171877	0		4.6618408203125	-0.16634341430664062	0		5.57200537109375	0.1484668731689453	0		-0.3184222717285156	5.83370458984375	0		
-0.031619312286376954	-0.0042981901168823245	0		0.3836122131347656	-2.46718408203125	0		-1.0980782470703125	-0.06803455352783203	0		-0.9300901489257812	-2.27222998046875	0		1.3501165771484376	-0.7817291259765625	0		3.08635986328125	-0.31154617309570315	0		4.6674267578125	-0.1603134765625	0		5.578599609375	0.15548660278320312	0		-0.315861572265625	5.8327734375	0		
0.012994948387145997	0.0034887070655822755	0		0.4311832885742187	-2.4644189453125	0		-1.0215263061523439	-0.06946163940429688	0		-0.8905523071289062	-2.274405517578125	0		1.343695068359375	-0.778599609375	0		3.06182470703125	-0.3252999267578125	0		4.6600009765625	-0.15818928527832032	0		5.57511328125	0.14858038330078124	0		-0.2812256164550781	5.8406298828125	0		
-0.06847588348388672	0.002139955997467041	0		0.4306949462890625	-2.467321533203125	0		-1.0949771728515625	-0.067861328125	0		-0.9409841918945312	-2.268962646484375	0		1.345233154296875	-0.7785191650390625	0		3.058412353515625	-0.3181916809082031	0		4.65750048828125	-0.16409324645996093	0		5.582599609375	0.14060501098632813	0		-0.32977191162109376	5.82505712890625	0		
0.016972265243530273	-0.004342907905578613	0		0.4291503295898437	-2.471212646484375	0		-1.0305697021484375	-0.08019725799560547	0		-0.8915634765625	-2.27819677734375	0		1.3467215576171876	-0.778433837890625	0		3.0608203125	-0.3301187744140625	0		4.65899072265625	-0.164019287109375	0		5.57814599609375	0.14871656799316407	0		-0.3282609558105469	5.8251484375	0		
-0.06556751251220704	0.002324275016784668	0		0.37862234497070313	-2.461765380859375	0		-1.0920692138671875	-0.06767020416259766	0		-0.928138916015625	-2.275840576171875	0		1.345109130859375	-0.7823236083984375	0		3.06733203125	-0.316069091796875	0		4.6693935546875	-0.1660016632080078	0		5.57956396484375	0.14879263305664062	0		-0.31175698852539063	5.835140625	0		
0.01574989891052246	8.756620287895203E-4	0		0.436926513671875	-2.46405810546875	0		-1.0907432861328126	-0.06756961059570313	0		-0.9227920532226562	-2.27176806640625	0		1.352480712890625	-0.7752710571289062	0		3.067595703125	-0.3249732360839844	0		4.66577392578125	-0.15788340759277344	0		5.58593798828125	0.1558400421142578	0		-0.31041439819335936	5.8352392578125	0		
-0.05503185272216797	4.6795400977134706E-4	0		0.4091451416015625	-2.463760498046875	0		-1.08952001953125	-0.06746675109863282	0		-0.8476163940429687	-2.2781708984375	0		1.3506820068359375	-0.7781530151367188	0		3.104906494140625	-0.3121257629394531	0		4.6669970703125	-0.15779324340820314	0		5.59805908203125	0.14085337829589845	0		-0.274144775390625	5.84010107421875	0		
0.01808806037902832	0.001078663945198059	0		0.4362216491699219	-2.4688359375	0		-1.0974530029296874	-0.07430094909667968	0		-0.9244893188476563	-2.2755341796875	0		1.351795654296875	-0.7780523071289063	0		3.0818984375	-0.3298631286621094	0		4.66811181640625	-0.15769720458984374	0		5.6072763671875	0.15589309692382813	0		-0.28808978271484376	5.830306640625	0		
-0.033905914306640625	0.001544564962387085	0		0.4092461242675781	-2.465541259765625	0		-1.0964482421875	-0.07419654846191406	0		-0.850535400390625	-2.282928466796875	0		1.3437249755859375	-0.7888876342773438	0		3.08799169921875	-0.31679568481445314	0		4.66507568359375	-0.16356875610351562	0		5.6001787109375	0.14104852294921874	0		-0.30704690551757813	5.83554736328125	0		
0.0209349422454834	-0.006720510005950928	0		0.4470671081542969	-2.47668994140625	0		-1.08650390625	-0.06715457916259765	0		-0.9225889282226563	-2.275326171875	0		1.35369677734375	-0.7778455200195312	0		3.073752197265625	-0.3365887145996094	0		4.66395849609375	-0.16545089721679687	0		5.59017822265625	0.1562275848388672	0		-0.30416436767578126	5.83363720703125	0		
-0.020196247100830077	0.004668909072875977	0		0.42592324829101563	-2.46743701171875	0		-1.0816907958984374	-0.06407992553710938	0		-0.8417967529296875	-2.275770751953125	0		1.3684281005859376	-0.7868374633789063	0		3.108715087890625	-0.3117170715332031	0		4.6797919921875	-0.1594480743408203	0		5.599970703125	0.1562720947265625	0		-0.3033751525878906	5.83373974609375	0		
0.029468393325805663	4.350750148296356E-4	0		0.4426455993652344	-2.463445068359375	0		-1.0850179443359376	-0.06695269012451172	0		-0.9210996704101563	-2.2751240234375	0		1.3551837158203126	-0.7776399536132812	0		3.069286376953125	-0.32933966064453124	0		4.6714990234375	-0.15728146362304687	0		5.5916640625	0.15643959045410155	0		-0.3036805725097656	5.83484716796875	0		
-0.026952943801879882	-0.0020773301124572753	0		0.44021206665039064	-2.468325927734375	0		-1.0844200439453124	-0.06685574340820312	0		-0.847548828125	-2.282525390625	0		1.3497347412109375	-0.7844991455078125	0		3.107890625	-0.3284977111816406	0		4.66805615234375	-0.16315066528320313	0		5.5931591796875	0.1415374755859375	0		-0.3030892028808594	5.83494482421875	0		
0.018552364349365233	-0.0022901360988616943	0		0.44072134399414065	-2.468230712890625	0		-1.0929613037109376	-0.07370084381103516	0		-0.9349694213867188	-2.2718310546875	0		1.34721484375	-0.7883824462890625	0		3.07740478515625	-0.3271878051757813	0		4.66250830078125	-0.17100944519042968	0		5.58772021484375	0.1496793975830078	0		-0.31865081787109373	5.8261484375	0		
-0.030000154495239257	0.002134619951248169	0		0.4500885009765625	-2.476201171875	0		-1.0834945068359374	-0.06667353057861328	0		-0.8466180419921875	-2.282342529296875	0		1.3566209716796875	-0.7903519897460938	0		3.09891259765625	-0.314237548828125	0		4.67796826171875	-0.16501615905761718	0		5.5931865234375	0.1567420654296875	0		-0.302177734375	5.83512890625	0		
-0.021669639587402343	0.0011654160022735597	0		0.4264775390625	-2.46895166015625	0		-1.083156982421875	-0.0665894775390625	0		-0.9192280883789062	-2.274760009765625	0		1.362007080078125	-0.7832991333007813	0		3.0871484375	-0.32906591796875	0		4.67830615234375	-0.16492478942871094	0		5.59352392578125	0.1568345947265625	0		-0.30184762573242185	5.83521435546875	0		
0.023601078033447267	0.0019381790161132812	0		0.44478659057617187	-2.462994140625	0		-1.0079004516601562	-0.06802297210693359	0		-0.8460093383789062	-2.282179443359375	0		1.362273193359375	-0.7832171630859375	0		3.123501708984375	-0.31622747802734374	0		4.6785712890625	-0.1648380432128906	0		5.60278857421875	0.15686125183105468	0		-0.30159112548828126	5.83529345703125	0		
0.02776983642578125	-0.0030153820514678955	0		0.44297348022460936	-2.465906005859375	0		-1.0826888427734376	-0.06643942260742187	0		-0.84781591796875	-2.28409375	0		1.3544027099609375	-0.7940863647460937	0		3.097657958984375	-0.3229708251953125	0		4.6738291015625	-0.15672227478027342	0		5.604888671875	0.14193141174316407	0		-0.28143304443359374	5.83023046875	0		
0.01590572452545166	-0.004867177009582519	0		0.442114501953125	-2.467831787109375	0		-1.0196227416992187	-0.07880502319335937	0		-0.8516889038085937	-2.288001953125	0		1.3485947265625	-0.7879763793945312	0		3.104821533203125	-0.3209456176757812	0		4.67488330078125	-0.1706523132324219	0		5.59909228515625	0.1500506286621094	0		-0.302255126953125	5.83643896484375	0		
-0.024973455429077147	-0.00152920401096344	0		0.39721466064453126	-2.46846533203125	0		-1.0914873046875	-0.07325845336914062	0		-0.9235203857421875	-2.278455078125	0		1.3596141357421876	-0.7999890747070313	0		3.1038603515625	-0.3298719482421875	0		4.67902392578125	-0.16460893249511718	0		5.6032392578125	0.157096435546875	0		-0.30018484497070314	5.83448291015625	0		
0.03209656524658203	0.0011329840421676635	0		0.4572718505859375	-2.468822265625	0		-1.0764229736328126	-0.07131330871582031	0		-0.9184352416992188	-2.27444140625	0		1.3687423095703124	-0.78899560546875	0		3.127034423828125	-0.31196859741210936	0		4.6831162109375	-0.15857090759277342	0		5.60328955078125	0.15716474914550782	0		-0.29915899658203127	5.8335263671875	0		
-0.020899253845214842	0.0015380009412765503	0		0.418339111328125	-2.46051123046875	0		-1.082385498046875	-0.06623257446289063	0		-0.847487060546875	-2.28388427734375	0		1.3627005615234375	-0.79590576171875	0		3.109929931640625	-0.32779730224609377	0		4.69007861328125	-0.16455770874023437	0		5.59518994140625	0.14228367614746093	0		-0.30116342163085935	5.83558251953125	0		
0.024061330795288084	0.0022689659595489502	0		0.44326937866210936	-2.465642333984375	0		-1.0955050048828125	-0.0771108169555664	0		-0.9255074462890625	-2.2813193359375	0		1.3596314697265626	-0.7998422241210937	0		3.104933837890625	-0.32071322631835936	0		4.67499365234375	-0.1703988037109375	0		5.58919873046875	0.1503846893310547	0		-0.2671924438476562	5.84138720703125	0		
-0.05507828140258789	-0.004161985874176025	0		0.4421731567382812	-2.46760205078125	0		-1.0955985107421875	-0.07708446502685547	0		-0.85465380859375	-2.29077490234375	0		1.35652099609375	-0.8027843017578125	0		3.109793701171875	-0.3277017822265625	0		4.674900390625	-0.17034637451171875	0		5.5850498046875	0.14246864318847657	0		-0.31642034912109374	5.8257509765625	0		
0.027792047500610352	-0.0027011730670928953	0		0.44305718994140625	-2.465581298828125	0		-1.095739501953125	-0.07706430053710937	0		-0.9277349243164063	-2.283257568359375	0		1.3594036865234376	-0.7997728881835937	0		3.1147490234375	-0.3136957702636719	0		4.67880078125	-0.16432588195800782	0		5.594009765625	0.15745930480957032	0		-0.3015220031738281	5.8356728515625	0		
-0.05634997177124024	0.0038896400928497316	0		0.4179190979003906	-2.460389404296875	0		-1.082849365234375	-0.06613811492919922	0		-0.8479103393554688	-2.283785400390625	0		1.359222900390625	-0.79974609375	0		3.113504638671875	-0.3226533508300781	0		4.68961669921875	-0.16435752868652342	0		5.59382421875	0.15750688171386718	0		-0.3017353820800781	5.83569140625	0		
0.03141400718688965	0.0013076399564743043	0		0.444696533203125	-2.462554931640625	0		-1.0830694580078124	-0.06612776184082031	0		-0.9261041259765626	-2.281244384765625	0		1.3590064697265625	-0.7997237548828126	0		3.123333251953125	-0.31569049072265626	0		4.67839697265625	-0.1642442169189453	0		5.6026025390625	0.15748883056640625	0		-0.3160654907226563	5.82380078125	0		
-0.025850534439086914	-0.0012936520576477051	0		0.4424426574707031	-2.46552734375	0		-1.0963890380859376	-0.07703276824951172	0		-0.8523809814453125	-2.287739013671875	0		1.3557445068359375	-0.8026849365234375	0		3.132993896484375	-0.3297310791015625	0		4.68511181640625	-0.17025712585449218	0		5.60830859375	0.15048721313476562	0		-0.31732562255859376	5.82581787109375	0		
